<svg width="20" height="22" viewBox="0 0 20 22" fill="none" xmlns="http://www.w3.org/2000/svg">
<path d="M13.7512 9.5V5C13.7512 4.00544 13.3561 3.05161 12.6529 2.34835C11.9496 1.64509 10.9958 1.25 10.0012 1.25C9.00664 1.25 8.05282 1.64509 7.34956 2.34835C6.64629 3.05161 6.25121 4.00544 6.25121 5V9.5M17.6072 7.507L18.8702 19.507C18.9402 20.172 18.4202 20.75 17.7512 20.75H2.25121C2.09341 20.7502 1.93735 20.7171 1.79315 20.6531C1.64896 20.589 1.51985 20.4953 1.41423 20.3781C1.3086 20.2608 1.22882 20.1227 1.18006 19.9726C1.1313 19.8226 1.11466 19.6639 1.13121 19.507L2.39521 7.507C2.42436 7.23056 2.55483 6.9747 2.76146 6.78876C2.96808 6.60281 3.23623 6.49995 3.51421 6.5H16.4882C17.0642 6.5 17.5472 6.935 17.6072 7.507ZM6.62621 9.5C6.62621 9.59946 6.5867 9.69484 6.51637 9.76517C6.44604 9.83549 6.35066 9.875 6.25121 9.875C6.15175 9.875 6.05637 9.83549 5.98604 9.76517C5.91571 9.69484 5.87621 9.59946 5.87621 9.5C5.87621 9.40054 5.91571 9.30516 5.98604 9.23483C6.05637 9.16451 6.15175 9.125 6.25121 9.125C6.35066 9.125 6.44604 9.16451 6.51637 9.23483C6.5867 9.30516 6.62621 9.40054 6.62621 9.5V9.5ZM14.1262 9.5C14.1262 9.59946 14.0867 9.69484 14.0164 9.76517C13.946 9.83549 13.8507 9.875 13.7512 9.875C13.6517 9.875 13.5564 9.83549 13.486 9.76517C13.4157 9.69484 13.3762 9.59946 13.3762 9.5C13.3762 9.40054 13.4157 9.30516 13.486 9.23483C13.5564 9.16451 13.6517 9.125 13.7512 9.125C13.8507 9.125 13.946 9.16451 14.0164 9.23483C14.0867 9.30516 14.1262 9.40054 14.1262 9.5V9.5Z" stroke="#2B2B2B" stroke-width="2" stroke-linecap="round" stroke-linejoin="round"/>
</svg>
